<svg width="27" height="25" viewBox="0 0 27 25" fill="none" xmlns="http://www.w3.org/2000/svg">
<path d="M4.9026 0.900208C4.3361 0.900208 3.76817 1.18245 3.45024 1.65814L0.889879 5.23069L0.885262 5.23713L0.881717 5.24422C0.880535 5.24658 0.879321 5.249 0.878081 5.25147C0.851126 5.3052 0.811743 5.38369 0.811743 5.4676V22.9799C0.811743 23.8987 1.54146 24.6287 2.4605 24.6287H24.3509C25.271 24.6287 25.9997 23.8678 25.9997 22.9799L25.9994 5.48752C26.0117 5.45306 26.0137 5.41949 26.0102 5.38873H26.0645L25.9511 5.23048L23.3898 1.65659L23.3891 1.6557C23.0439 1.18502 22.5084 0.9 21.9384 0.9L15.7436 0.900208H4.9026ZM16.2989 5.51111V10.7522L13.4682 9.22143L13.4202 9.19546L13.3724 9.22181L10.5426 10.781V5.54104L11.6494 1.69576H15.2214L16.2989 5.51111ZM4.0907 2.10054L4.09071 2.10055L4.09125 2.09977C4.27891 1.83174 4.57389 1.69576 4.90287 1.69576H10.8165L9.86062 5.06965H1.97003L4.0907 2.10054ZM16.7363 11.4862L16.7447 11.4825L16.7523 11.4775C16.9564 11.3415 17.0948 11.1029 17.0948 10.8582L17.0944 5.86528H25.2336L25.2338 22.9798C25.2338 23.4585 24.834 23.8329 24.3807 23.8329H2.46051C1.98175 23.8329 1.60736 23.433 1.60736 22.9798V5.86528H9.74655V10.8582C9.74655 11.1353 9.88706 11.3431 10.0891 11.4775C10.1985 11.5505 10.3383 11.5836 10.4721 11.5836C10.5775 11.5836 10.7144 11.5501 10.8214 11.4801L13.4207 10.0783L16.0229 11.4817C16.2691 11.6217 16.513 11.5818 16.7363 11.4862ZM21.9386 1.69576C22.2617 1.69576 22.5606 1.85729 22.752 2.10227L24.8715 5.06967H17.0107L16.0548 1.69578L21.9386 1.69576Z" fill="#DBA362" stroke="#DBA362" stroke-width="0.2"/>
<path d="M11.038 5.06968H10.938V5.16968V5.76528V5.86528H11.038H15.8033H15.9033V5.76528V5.16968V5.06968H15.8033H11.038Z" fill="#DBA362" stroke="#DBA362" stroke-width="0.2"/>
</svg>
